<?xml version="1.0" encoding="UTF-8"?>
<svg width="519" height="626" version="1.1" viewBox="0 0 519 626" xmlns="http://www.w3.org/2000/svg">
 <g transform="matrix(1.0007 0 0 .9994 -74.065 -20.132)" stroke-width="1.3333">
  <path d="m102 625.43c-1.4667-0.61212-3.8667-2.4468-5.3333-4.077-2.6491-2.9445-2.6667-4.8409-2.6667-288.13v-285.16l7.3909-7.3939 45.998-0.38326c39.797-0.3316 46.578-0.09856 50.305 1.7288 3.3654 1.6504 30.072 38.526 122.19 168.72 64.837 91.632 118.38 166.6 118.98 166.6s1.2565-74.086 1.4483-164.64l0.34882-164.64 7.3939-7.3936h117.21l7.3939 7.3939v570.55l-7.3909 7.3939-45.998 0.38326c-39.797 0.3316-46.578 0.0985-50.305-1.7288-3.3654-1.6504-30.072-38.526-122.19-168.72-64.837-91.632-118.38-166.6-118.98-166.6s-1.2565 74.086-1.4483 164.64l-0.34882 164.64-7.3918 7.3936-56.971 0.27032c-31.334 0.14867-58.171-0.2305-59.637-0.84262zm98.319-201.4 0.34788-175.97 3.5097-3.5096c2.3656-2.3655 5.4213-3.725 9.3735-4.1705 12.667-1.4278 3.524-13.177 141.12 181.34l126 178.13 66 0.156v-533.33h-79.971l-0.34786 175.97-0.34788 175.97-3.5097 3.5096c-2.3656 2.3655-5.4213 3.725-9.3735 4.1705-12.667 1.4278-3.524 13.177-141.12-181.34l-126-178.13-66-0.15604v533.33h79.971z" fill="#fd9f97"/>
  <path d="m99.273 620.73-3.2727-3.2727v-568.24l6.5455-6.5455h46.653c46.521 0 46.662 0.0085 49.93 3 1.8022 1.65 55.017 76.2 118.25 165.67s116.34 164.1 118.02 165.85c1.8426 1.9337 3.8691 2.8678 5.1529 2.3752 1.9165-0.73544 2.1159-16.338 2.1159-165.58v-164.77l6.5455-6.5455h114.91l6.5455 6.5455v568.24l-6.5455 6.5454h-46.653c-46.521 0-46.662-8e-3 -49.93-3-1.8022-1.65-55.017-76.2-118.25-165.67s-116.34-164.1-118.02-165.85c-1.8426-1.9337-3.8691-2.8678-5.1529-2.3752-1.9165 0.73544-2.1159 16.338-2.1159 165.58v164.77l-6.5455 6.5454h-114.91zm103.39-195.85 0.66667-177.12 3.1477-2.5487c2.1591-1.7482 5.237-2.5487 9.8-2.5487 5.7446 0 7.2322 0.5913 10.902 4.3333 2.3372 2.3833 60.223 83.393 128.63 180.02l124.38 175.69 68.465-0.71128v-537.33h-84l-0.66666 177.12-0.66667 177.12-3.1477 2.5487c-2.1591 1.7482-5.237 2.5487-9.8 2.5487-5.7446 0-7.2322-0.5913-10.902-4.3333-2.3372-2.3833-60.223-83.393-128.63-180.02l-124.38-175.69-68.465 0.71128-0.34195 267.33c-0.18807 147.03-0.0536 268.09 0.2988 269.02 0.50159 1.3196 9.6969 1.6092 42.342 1.3333l41.701-0.35237z" fill="#fd6c60"/>
 </g>
</svg>
